<?xml version="1.0" standalone="no"?>
<!DOCTYPE svg PUBLIC "-//W3C//DTD SVG 20010904//EN"
 "http://www.w3.org/TR/2001/REC-SVG-20010904/DTD/svg10.dtd">
<svg version="1.0" xmlns="http://www.w3.org/2000/svg"
 width="469.000000pt" height="469.000000pt" viewBox="0 0 469.000000 469.000000"
 preserveAspectRatio="xMidYMid meet">
<metadata>
Created by potrace 1.11, written by Peter Selinger 2001-2013
</metadata>
<g transform="translate(0.000000,469.000000) scale(0.100000,-0.100000)"
fill="#000000" stroke="none">
<path d="M2703 4518 c-26 -29 -57 -78 -49 -78 3 0 1 -12 -5 -27 -11 -28 -13
-159 -4 -207 7 -36 29 -85 49 -109 16 -21 96 -36 96 -19 0 6 9 14 20 17 11 4
18 10 15 15 -3 5 1 12 9 17 8 4 15 11 15 16 1 4 1 8 2 10 10 33 13 59 16 147
3 84 1 113 -13 145 -10 22 -18 43 -18 47 -1 3 -5 10 -10 15 -5 5 -6 2 -1 -6 5
-9 4 -12 -3 -7 -7 4 -12 13 -12 21 0 32 -78 34 -107 3z"/>
<path d="M2628 3989 c-10 -5 -18 -7 -18 -2 0 8 -34 -38 -36 -49 -1 -5 -2 -9
-4 -10 -1 -2 -4 -23 -6 -48 -2 -25 -6 -51 -9 -57 -2 -7 -1 -13 4 -13 5 0 5
-18 1 -40 -4 -22 -4 -40 0 -40 4 0 4 -18 0 -40 -4 -22 -4 -40 0 -40 4 0 4 -18
0 -40 -4 -22 -4 -40 0 -40 4 0 4 -19 0 -42 -5 -24 -9 -124 -10 -223 0 -98 -3
-182 -6 -184 -3 -3 -44 -9 -92 -12 -93 -7 -175 -27 -166 -40 3 -5 -4 -9 -15
-9 -11 0 -23 -5 -26 -10 -4 -6 -11 -8 -16 -5 -5 4 -9 1 -9 -4 0 -6 -7 -11 -15
-11 -8 0 -15 -4 -15 -10 0 -5 -3 -9 -7 -9 -18 3 -32 -2 -45 -13 -26 -26 -67
-41 -80 -31 -27 19 -75 15 -102 -10 -14 -13 -23 -27 -19 -30 3 -4 1 -7 -5 -7
-7 0 -12 -7 -12 -15 0 -20 -32 -51 -62 -60 -12 -4 -34 -16 -47 -26 -13 -10
-27 -16 -32 -13 -5 3 -9 1 -9 -5 0 -5 -10 -13 -22 -16 -11 -4 -44 -21 -72 -37
-28 -17 -53 -30 -56 -30 -16 -1 -29 -12 -24 -20 4 -6 1 -8 -7 -6 -12 5 -64
-17 -79 -32 -3 -3 -18 -12 -35 -20 -16 -8 -36 -21 -43 -28 -8 -7 -18 -10 -23
-7 -5 4 -9 1 -9 -4 0 -6 -9 -11 -20 -11 -11 0 -20 -3 -20 -7 0 -5 -32 -23 -70
-42 -39 -18 -70 -38 -70 -44 0 -6 -3 -7 -6 -4 -4 4 -20 -3 -35 -14 -16 -11
-29 -17 -29 -14 0 3 -13 -3 -29 -14 -15 -11 -31 -18 -35 -14 -3 3 -6 2 -6 -3
0 -6 -16 -16 -35 -24 -19 -8 -35 -18 -35 -22 0 -5 -5 -6 -10 -3 -6 3 -10 3
-10 -2 0 -4 -14 -14 -31 -22 -16 -7 -28 -15 -26 -17 2 -3 -11 -20 -28 -39 -23
-24 -35 -48 -40 -81 -7 -48 1 -344 12 -424 3 -25 5 -65 4 -90 -3 -75 -1 -190
3 -280 3 -47 5 -133 6 -193 1 -59 6 -110 11 -113 14 -8 10 -196 -4 -215 -13
-17 -106 -125 -122 -143 -6 -6 -24 -28 -39 -49 -16 -21 -32 -34 -36 -30 -4 4
-22 46 -39 93 -18 47 -39 101 -47 120 -7 19 -45 121 -83 225 -38 105 -73 198
-76 208 -10 25 -45 22 -45 -4 0 -11 23 -82 51 -157 28 -76 73 -198 100 -272
28 -74 54 -144 59 -155 14 -35 35 -90 35 -95 2 -14 27 -50 35 -50 6 0 20 12
33 26 12 15 27 32 32 38 6 6 44 50 84 99 40 48 74 87 75 87 1 0 2 -8 3 -17 3
-70 14 -202 18 -223 2 -14 14 -33 26 -42 12 -10 18 -18 14 -18 -3 0 1 -8 11
-18 14 -14 36 -17 118 -17 108 0 374 12 416 19 14 2 75 7 135 10 61 4 135 9
165 11 30 2 107 7 170 10 63 3 134 8 156 11 l41 6 1 -182 0 -181 -26 -10 c-15
-6 -34 -8 -44 -6 -10 3 -16 2 -13 -3 3 -4 -15 -11 -38 -14 -34 -5 -49 -14 -67
-39 -13 -18 -19 -29 -15 -25 4 4 15 2 23 -4 15 -13 64 -18 72 -7 3 4 21 9 40
12 85 14 129 29 134 45 3 9 5 100 5 202 -1 229 -1 217 14 217 50 1 287 15 310
19 21 3 27 0 28 -13 0 -10 1 -109 0 -220 0 -197 1 -203 22 -218 12 -8 34 -15
49 -15 16 0 28 -4 28 -9 0 -5 8 -8 17 -7 10 2 40 -3 68 -10 44 -12 51 -11 68
4 11 9 21 15 24 14 3 -2 8 -1 11 3 4 4 1 5 -7 3 -8 -2 -17 6 -20 17 -3 11 -15
21 -26 23 -11 1 -51 10 -90 20 l-70 17 -1 193 c-1 106 2 195 7 197 8 6 245 24
654 50 39 3 99 7 135 10 36 2 110 7 165 10 142 9 297 24 304 31 3 3 6 10 6 15
0 5 5 9 10 10 10 0 37 43 41 64 1 6 5 23 8 39 3 16 6 111 6 211 1 100 5 187 9
193 4 8 35 -22 84 -81 142 -172 144 -174 161 -157 8 8 62 141 120 295 91 243
103 282 90 295 -12 13 -16 13 -27 0 -8 -8 -56 -127 -106 -265 -51 -137 -94
-251 -96 -253 -1 -1 -47 50 -101 114 -55 64 -104 122 -111 129 -9 10 -13 152
-16 581 -2 313 -6 578 -8 588 -3 11 -11 22 -17 24 -7 2 -12 10 -12 17 0 8 -9
17 -20 20 -11 3 -20 13 -20 21 0 8 -7 14 -16 14 -8 0 -12 5 -9 10 3 6 0 10 -7
10 -7 0 -22 13 -33 29 -10 16 -23 27 -27 25 -4 -3 -8 0 -8 6 0 6 -4 8 -10 5
-5 -3 -10 -2 -10 3 0 12 -37 53 -47 53 -4 -1 -15 5 -25 13 -9 8 -19 12 -22 9
-3 -4 -6 1 -6 10 0 10 -4 17 -8 17 -19 0 -132 84 -132 97 0 8 -4 11 -10 8 -5
-3 -10 0 -10 8 0 9 -15 14 -46 16 -25 1 -53 6 -62 11 -17 9 -43 17 -52 18 -3
0 -22 7 -44 16 -21 9 -55 16 -75 16 -20 0 -45 7 -55 15 -11 8 -40 15 -65 15
-24 0 -52 6 -60 14 -14 11 -109 36 -148 39 -7 0 -13 3 -13 7 0 4 -9 18 -21 31
-20 23 -20 29 -13 374 3 192 5 366 4 385 -1 19 -3 51 -3 70 -2 30 -7 37 -41
53 -21 10 -47 19 -57 20 -11 1 -19 5 -19 9 0 12 -152 9 -172 -3z"/>
<path d="M1693 155 c0 -8 4 -12 9 -9 5 3 6 10 3 15 -9 13 -12 11 -12 -6z"/>
<path d="M2495 150 c-3 -5 -1 -10 4 -10 6 0 11 5 11 10 0 6 -2 10 -4 10 -3 0
-8 -4 -11 -10z"/>
<path d="M2530 150 c0 -5 5 -10 11 -10 5 0 7 5 4 10 -3 6 -8 10 -11 10 -2 0
-4 -4 -4 -10z"/>
<path d="M1829 133 c-13 -16 -12 -17 4 -4 16 13 21 21 13 21 -2 0 -10 -8 -17
-17z"/>
<path d="M2397 143 c-10 -9 -9 -23 1 -23 5 0 9 7 9 15 0 17 -1 18 -10 8z"/>
<path d="M1755 120 c10 -11 20 -20 23 -20 3 0 -3 9 -13 20 -10 11 -20 20 -23
20 -3 0 3 -9 13 -20z"/>
<path d="M2286 128 c3 -5 10 -6 15 -3 13 9 11 12 -6 12 -8 0 -12 -4 -9 -9z"/>
<path d="M2319 123 c-13 -16 -12 -17 4 -4 16 13 21 21 13 21 -2 0 -10 -8 -17
-17z"/>
<path d="M2350 130 c0 -5 5 -10 10 -10 6 0 10 5 10 10 0 6 -4 10 -10 10 -5 0
-10 -4 -10 -10z"/>
<path d="M2420 136 c0 -2 8 -10 18 -17 15 -13 16 -12 3 4 -13 16 -21 21 -21
13z"/>
<path d="M1850 109 c0 -5 5 -7 10 -4 6 3 10 8 10 11 0 2 -4 4 -10 4 -5 0 -10
-5 -10 -11z"/>
<path d="M2535 110 c-5 -8 42 -7 49 1 3 3 -6 5 -20 5 -14 0 -27 -3 -29 -6z"/>
<path d="M2639 103 c-12 -16 -12 -17 2 -6 9 7 20 9 24 5 5 -4 5 -1 1 6 -9 16
-11 15 -27 -5z"/>
<path d="M2126 88 c3 -5 10 -6 15 -3 13 9 11 12 -6 12 -8 0 -12 -4 -9 -9z"/>
<path d="M3436 92 c-3 -5 1 -9 9 -9 8 0 12 4 9 9 -3 4 -7 8 -9 8 -2 0 -6 -4
-9 -8z"/>
<path d="M2555 50 c3 -5 8 -10 11 -10 2 0 4 5 4 10 0 6 -5 10 -11 10 -5 0 -7
-4 -4 -10z"/>
</g>
</svg>
